<svg xmlns="http://www.w3.org/2000/svg" xmlns:xlink="http://www.w3.org/1999/xlink" width="500" zoomAndPan="magnify" viewBox="0 0 375 149.999998" height="200" preserveAspectRatio="xMidYMid meet" version="1.0"><defs><g><g id="id1"/><g id="id2"/></g><clipPath id="id3"><path d="M 32 60 L 121 60 L 121 133.84375 L 32 133.84375 Z M 32 60 " clip-rule="nonzero"/></clipPath><clipPath id="id4"><path d="M 4 24 L 136.933594 24 L 136.933594 113 L 4 113 Z M 4 24 " clip-rule="nonzero"/></clipPath><clipPath id="id5"><path d="M 21 15.992188 L 85 15.992188 L 85 94 L 21 94 Z M 21 15.992188 " clip-rule="nonzero"/></clipPath></defs><g clip-path="url(#id3)"><path fill="rgb(25.878906%, 61.959839%, 74.119568%)" d="M 63.191406 110.597656 C 67.421875 110.042969 71.449219 106.277344 71.523438 106.207031 C 71.515625 106.234375 71.65625 106.503906 75.460938 109.097656 C 80.03125 112.214844 84.179688 107.5625 84.179688 107.5625 C 90.402344 111.421875 94.671875 109.597656 94.671875 109.597656 C 90.886719 112.046875 85.503906 110.425781 85.503906 110.425781 C 77.261719 115.058594 71.6875 109.515625 71.6875 109.515625 C 68.226562 111.164062 63.191406 110.597656 63.191406 110.597656 Z M 32.378906 106.953125 C 35.011719 112.6875 38.789062 117.792969 43.421875 121.96875 C 56.71875 119.839844 61.855469 113.804688 61.855469 113.804688 C 61.855469 113.804688 65.707031 120.488281 74.8125 120.425781 C 83.917969 120.359375 85.929688 113.804688 85.929688 113.804688 C 85.929688 113.804688 89.171875 118.042969 97.578125 120.097656 C 102.980469 121.421875 109.3125 118.070312 111.160156 115.523438 L 111.164062 115.519531 C 107.933594 114.726562 105.664062 113.882812 105.664062 113.882812 C 99.183594 117.773438 92.367188 114.945312 92.367188 114.945312 C 99.203125 116.171875 104.886719 107.660156 104.886719 107.660156 C 104.886719 107.660156 107.355469 110.796875 112.835938 113.160156 C 117.648438 105.890625 120.453125 97.179688 120.453125 87.816406 C 120.453125 77.476562 117.035156 67.929688 111.265625 60.246094 C 110.476562 60.804688 109.5625 61.550781 108.40625 62.792969 C 98.964844 72.957031 85.472656 82.976562 74.941406 89.542969 C 60.539062 98.527344 45.429688 104.351562 32.378906 106.953125 Z M 44.410156 122.832031 C 52.464844 129.695312 62.914062 133.839844 74.332031 133.839844 C 84.332031 133.839844 93.585938 130.664062 101.140625 125.269531 C 93.085938 125.460938 87.457031 120.886719 87.457031 120.886719 C 74.835938 129.921875 61.855469 120.488281 61.855469 120.488281 C 52.875 122.988281 47.382812 123.128906 44.410156 122.832031 " fill-opacity="1" fill-rule="nonzero"/></g><path fill="rgb(25.878906%, 61.959839%, 74.119568%)" d="M 74.941406 89.542969 C 85.472656 82.976562 98.964844 72.957031 108.40625 62.792969 C 109.5625 61.550781 110.476562 60.804688 111.265625 60.246094 C 111.484375 60.539062 111.703125 60.835938 111.914062 61.136719 C 106.304688 69.757812 95.441406 84.503906 80.066406 96.628906 C 66.429688 107.378906 52.386719 115.089844 40.441406 119.03125 C 37.15625 115.476562 34.421875 111.40625 32.378906 106.953125 C 45.429688 104.351562 60.539062 98.527344 74.941406 89.542969 " fill-opacity="1" fill-rule="nonzero"/><path fill="rgb(96.469116%, 52.938843%, 7.058716%)" d="M 106.703125 55.035156 C 101.789062 60.386719 92.640625 69.269531 79.785156 77.234375 C 68.828125 84.023438 57.394531 89.128906 47.433594 91.847656 C 45.332031 92.421875 43.296875 92.890625 41.34375 93.242188 C 38.398438 93.777344 35.648438 94.058594 33.144531 94.058594 C 31.449219 94.058594 29.921875 93.929688 28.585938 93.679688 C 28.339844 91.757812 28.214844 89.800781 28.214844 87.816406 C 28.214844 71.09375 37.152344 56.453125 50.519531 48.394531 C 54.636719 45.914062 59.171875 44.054688 63.996094 42.953125 C 64.023438 42.945312 64.046875 42.941406 64.070312 42.9375 C 65.324219 42.652344 66.601562 42.417969 67.890625 42.238281 C 68.070312 42.214844 68.25 42.191406 68.429688 42.167969 C 69.707031 42.003906 70.996094 41.894531 72.304688 41.835938 C 72.386719 41.832031 72.472656 41.828125 72.554688 41.828125 C 73.148438 41.804688 73.738281 41.792969 74.332031 41.792969 C 76.679688 41.792969 78.980469 41.964844 81.230469 42.304688 C 91.085938 43.777344 99.925781 48.367188 106.703125 55.035156 " fill-opacity="1" fill-rule="nonzero"/><g clip-path="url(#id4)"><path fill="rgb(25.878906%, 61.959839%, 74.119568%)" d="M 131.414062 35.902344 C 134.992188 30.425781 136.929688 25.5625 135.773438 24.777344 C 134.621094 23.992188 130.789062 27.5625 126.984375 32.886719 L 112.371094 33 L 110.03125 36.421875 L 121.488281 41.425781 C 120.011719 43.855469 118.484375 46.453125 117.148438 48.847656 L 109.679688 48.457031 L 108.558594 50.097656 L 114.949219 52.957031 C 114.835938 53.179688 103.3125 68.472656 82.394531 81.433594 C 54.097656 98.964844 25.613281 104.269531 18.761719 93.257812 C 14.011719 85.632812 20.898438 72.175781 34.988281 58.796875 C 12.445312 76.226562 0.0117188 95.777344 6.339844 105.9375 C 13.878906 118.046875 45.277344 112.304688 76.351562 92.921875 C 101.480469 77.25 117.011719 54.480469 117.078125 54.40625 L 119.769531 58.132812 L 120.890625 56.492188 L 120.109375 50.863281 C 121.855469 48.75 123.722656 46.382812 125.449219 44.125 L 128.003906 51.902344 L 130.34375 48.480469 L 131.414062 35.902344 " fill-opacity="1" fill-rule="nonzero"/></g><g clip-path="url(#id5)"><path fill="rgb(25.878906%, 61.959839%, 74.119568%)" d="M 73.773438 42.816406 C 75.246094 44.082031 77.035156 44.914062 78.941406 45.28125 C 80.964844 45.671875 82.851562 46.28125 84.929688 47.265625 C 84.929688 47.265625 83.667969 44.890625 81.230469 42.304688 C 77.589844 38.441406 71.320312 34.117188 62.695312 36.550781 C 62.820312 36.46875 62.949219 36.390625 63.078125 36.308594 C 62.457031 36.0625 61.734375 35.863281 60.917969 35.769531 C 60.917969 35.769531 61.347656 35.640625 62.054688 35.636719 C 63.390625 35.621094 64.707031 35.292969 65.875 34.648438 L 65.914062 34.628906 C 65.210938 34.304688 64.824219 33.769531 63.828125 33.65625 C 63.828125 33.65625 64.402344 33.488281 65.3125 33.527344 C 66.824219 33.597656 68.335938 33.316406 69.699219 32.660156 C 69.777344 32.625 69.855469 32.589844 69.929688 32.550781 C 69.167969 32.15625 68.1875 31.800781 67.019531 31.671875 C 67.019531 31.671875 67.828125 31.40625 68.953125 31.410156 C 71.191406 31.421875 73.40625 30.960938 75.484375 30.128906 C 75.570312 30.09375 75.652344 30.058594 75.730469 30.03125 C 73.90625 29.484375 71.460938 28.9375 70.28125 28.804688 C 70.28125 28.804688 76.097656 28.203125 80.394531 28.628906 C 80.394531 28.628906 65.894531 18.644531 57.707031 36.851562 C 59.066406 32.304688 59.464844 24.390625 52.230469 19.46875 C 48.832031 17.160156 44.175781 15.988281 44.175781 15.988281 C 45.460938 17.253906 51.800781 24.726562 52.367188 25.871094 C 52.316406 25.835938 50.757812 24.683594 48.929688 23.917969 C 48.957031 24.003906 48.984375 24.089844 49.011719 24.179688 C 49.507812 25.761719 52.503906 29.410156 52.847656 30.105469 C 52.847656 30.105469 51.585938 29.167969 49.992188 28.410156 C 50.367188 30.707031 51.433594 33.167969 51.53125 35.242188 C 44.230469 21.070312 28.285156 25.472656 28.285156 25.472656 C 33.53125 26.03125 40.335938 28.199219 40.335938 28.199219 C 38.890625 28.0625 35.828125 28.113281 33.515625 28.308594 C 33.59375 28.359375 33.675781 28.414062 33.761719 28.472656 C 36.050781 29.992188 38.601562 31.09375 41.292969 31.648438 C 42.632812 31.921875 43.519531 32.4375 43.519531 32.4375 C 42.089844 32.300781 40.832031 32.484375 39.820312 32.765625 L 39.941406 32.855469 C 41.472656 34.015625 43.269531 34.769531 45.164062 35.089844 C 46.222656 35.273438 46.839844 35.605469 46.839844 35.605469 C 45.625 35.488281 45.027344 36.035156 44.105469 36.246094 C 44.148438 36.28125 44.1875 36.316406 44.226562 36.347656 C 44.558594 36.632812 44.90625 36.894531 45.273438 37.125 C 26.203125 30.972656 21.234375 44.75 21.234375 44.75 C 25.523438 41.773438 32.003906 38.992188 32.128906 38.941406 C 30.949219 39.78125 28.667969 41.816406 27.046875 43.476562 C 27.0625 43.476562 27.078125 43.472656 27.09375 43.472656 C 29.972656 43.089844 32.742188 42.167969 35.3125 40.8125 C 36.417969 40.230469 37.320312 40.0625 37.320312 40.0625 C 36.148438 40.894531 35.320312 41.855469 34.738281 42.726562 C 34.761719 42.726562 34.789062 42.722656 34.8125 42.722656 C 36.765625 42.597656 38.648438 41.988281 40.320312 40.980469 C 41.203125 40.453125 41.863281 40.296875 41.90625 40.289062 C 40.910156 40.996094 40.820312 41.796875 40.261719 42.558594 L 40.296875 42.558594 C 41.914062 42.550781 43.507812 42.152344 44.921875 41.371094 C 45.683594 40.949219 46.238281 40.820312 46.269531 40.8125 C 45.457031 41.394531 44.804688 42.035156 44.289062 42.667969 C 45.050781 42.707031 45.777344 42.757812 46.464844 42.8125 C 35.949219 45.394531 36.007812 57.566406 36.007812 57.566406 C 36.628906 56.261719 37.433594 55.136719 38.351562 54.15625 C 38.804688 51.765625 39.765625 49.898438 39.765625 49.898438 C 39.554688 51.097656 40.011719 53.855469 40.019531 53.847656 C 41.53125 52.523438 42.179688 50.121094 42.960938 48.269531 C 43.160156 47.792969 43.304688 47.515625 43.304688 47.515625 C 43.097656 48.683594 43 49.726562 42.976562 50.648438 C 42.988281 50.640625 43 50.632812 43.011719 50.628906 C 45.003906 49.519531 46.59375 47.808594 47.507812 45.722656 C 47.664062 45.375 47.441406 47.582031 47.433594 48.566406 C 50.132812 46.085938 51.800781 46.785156 51.800781 46.785156 C 51.398438 47.257812 50.96875 47.792969 50.519531 48.394531 C 45.644531 54.917969 38.542969 68.945312 41.34375 93.242188 C 43.296875 92.890625 45.332031 92.421875 47.433594 91.847656 C 45.148438 82.335938 42.421875 62.765625 53.5625 48.230469 C 53.5625 48.339844 53.972656 47.578125 54.328125 47.191406 C 54.394531 47.246094 53.609375 50.542969 53.5625 51.914062 L 53.558594 51.945312 C 54.214844 51.496094 54.894531 51.4375 55.519531 50.621094 C 55.511719 50.65625 55.363281 51.207031 54.890625 51.933594 C 54 53.316406 53.4375 54.886719 53.28125 56.523438 C 53.28125 56.542969 53.277344 56.566406 53.277344 56.585938 C 54.027344 56.117188 54.859375 55.445312 55.589844 54.484375 C 55.582031 54.53125 55.40625 55.265625 54.902344 56.152344 C 53.695312 58.277344 52.847656 60.582031 52.449219 62.992188 C 52.449219 63.003906 52.445312 63.015625 52.445312 63.03125 C 53.886719 61.710938 55.664062 59.84375 56.40625 58.875 C 56.355469 58.984375 53.839844 64.359375 51.21875 67.882812 C 51.21875 67.882812 62.945312 62.71875 59.085938 47.960938 C 59.644531 50.175781 60.945312 52.132812 62.777344 53.507812 C 62.789062 53.519531 62.804688 53.53125 62.820312 53.542969 C 63.023438 52.726562 63.101562 50.589844 63.140625 49.578125 C 63.140625 49.578125 65.5 52.421875 66.453125 56.476562 L 66.480469 56.503906 C 66.671875 55.71875 66.917969 53.617188 66.957031 52.65625 C 66.957031 52.65625 68.699219 56.195312 71.5625 63.855469 C 71.5625 63.855469 75.089844 50.671875 64.941406 43.511719 C 66.289062 44.210938 67.789062 44.570312 69.316406 44.558594 L 69.363281 44.558594 C 69.132812 44.03125 67.898438 42.632812 67.714844 42.367188 C 67.714844 42.367188 72.191406 44.558594 74.019531 44.6875 L 74.074219 44.691406 C 73.796875 44.066406 72.511719 42.089844 72.429688 41.96875 C 72.429688 41.96875 73.3125 42.421875 73.773438 42.816406 " fill-opacity="1" fill-rule="nonzero"/></g><g fill="rgb(14.118958%, 61.959839%, 74.119568%)" fill-opacity="1"><g transform="translate(143.483749, 89.534697)"><g><path d="M 3.65625 -29.015625 L 12.6875 -29.015625 C 16.800781 -29.015625 19.785156 -28.429688 21.640625 -27.265625 C 23.503906 -26.097656 24.4375 -24.234375 24.4375 -21.671875 C 24.4375 -19.941406 24.03125 -18.519531 23.21875 -17.40625 C 22.40625 -16.300781 21.320312 -15.632812 19.96875 -15.40625 L 19.96875 -15.203125 C 21.8125 -14.796875 23.140625 -14.03125 23.953125 -12.90625 C 24.765625 -11.78125 25.171875 -10.285156 25.171875 -8.421875 C 25.171875 -5.773438 24.210938 -3.707031 22.296875 -2.21875 C 20.390625 -0.738281 17.796875 0 14.515625 0 L 3.65625 0 Z M 9.8125 -17.53125 L 13.375 -17.53125 C 15.039062 -17.53125 16.25 -17.785156 17 -18.296875 C 17.75 -18.816406 18.125 -19.671875 18.125 -20.859375 C 18.125 -21.972656 17.71875 -22.769531 16.90625 -23.25 C 16.09375 -23.738281 14.804688 -23.984375 13.046875 -23.984375 L 9.8125 -23.984375 Z M 9.8125 -12.640625 L 9.8125 -5.078125 L 13.8125 -5.078125 C 15.507812 -5.078125 16.757812 -5.398438 17.5625 -6.046875 C 18.375 -6.703125 18.78125 -7.695312 18.78125 -9.03125 C 18.78125 -11.4375 17.0625 -12.640625 13.625 -12.640625 Z M 9.8125 -12.640625 "/></g></g></g><g fill="rgb(14.118958%, 61.959839%, 74.119568%)" fill-opacity="1"><g transform="translate(177.746938, 89.534697)"><g><path d="M 30 -14.546875 C 30 -9.742188 28.804688 -6.050781 26.421875 -3.46875 C 24.035156 -0.894531 20.617188 0.390625 16.171875 0.390625 C 11.734375 0.390625 8.320312 -0.894531 5.9375 -3.46875 C 3.550781 -6.050781 2.359375 -9.757812 2.359375 -14.59375 C 2.359375 -19.425781 3.550781 -23.113281 5.9375 -25.65625 C 8.332031 -28.207031 11.757812 -29.484375 16.21875 -29.484375 C 20.675781 -29.484375 24.085938 -28.195312 26.453125 -25.625 C 28.816406 -23.0625 30 -19.367188 30 -14.546875 Z M 8.8125 -14.546875 C 8.8125 -11.304688 9.425781 -8.863281 10.65625 -7.21875 C 11.882812 -5.582031 13.722656 -4.765625 16.171875 -4.765625 C 21.085938 -4.765625 23.546875 -8.023438 23.546875 -14.546875 C 23.546875 -21.085938 21.101562 -24.359375 16.21875 -24.359375 C 13.769531 -24.359375 11.921875 -23.535156 10.671875 -21.890625 C 9.429688 -20.242188 8.8125 -17.796875 8.8125 -14.546875 Z M 8.8125 -14.546875 "/></g></g></g><g fill="rgb(14.118958%, 61.959839%, 74.119568%)" fill-opacity="1"><g transform="translate(217.051182, 89.534697)"><g><path d="M 9.8125 -16.140625 L 11.796875 -16.140625 C 13.734375 -16.140625 15.164062 -16.460938 16.09375 -17.109375 C 17.019531 -17.753906 17.484375 -18.773438 17.484375 -20.171875 C 17.484375 -21.546875 17.007812 -22.523438 16.0625 -23.109375 C 15.125 -23.691406 13.660156 -23.984375 11.671875 -23.984375 L 9.8125 -23.984375 Z M 9.8125 -11.140625 L 9.8125 0 L 3.65625 0 L 3.65625 -29.015625 L 12.109375 -29.015625 C 16.054688 -29.015625 18.972656 -28.296875 20.859375 -26.859375 C 22.753906 -25.429688 23.703125 -23.253906 23.703125 -20.328125 C 23.703125 -18.617188 23.234375 -17.097656 22.296875 -15.765625 C 21.359375 -14.441406 20.023438 -13.398438 18.296875 -12.640625 C 22.671875 -6.117188 25.519531 -1.90625 26.84375 0 L 20.015625 0 L 13.078125 -11.140625 Z M 9.8125 -11.140625 "/></g></g></g><g fill="rgb(14.118958%, 61.959839%, 74.119568%)" fill-opacity="1"><g transform="translate(250.838056, 89.534697)"><g><path d="M 21.421875 0 L 19.3125 -6.90625 L 8.734375 -6.90625 L 6.625 0 L 0 0 L 10.25 -29.140625 L 17.765625 -29.140625 L 28.046875 0 Z M 17.84375 -12.0625 C 15.894531 -18.320312 14.796875 -21.863281 14.546875 -22.6875 C 14.304688 -23.507812 14.132812 -24.160156 14.03125 -24.640625 C 13.59375 -22.941406 12.34375 -18.75 10.28125 -12.0625 Z M 17.84375 -12.0625 "/></g></g></g><g fill="rgb(96.469116%, 52.938843%, 7.058716%)" fill-opacity="1"><g transform="translate(285.830548, 89.534697)"><g><path d="M 3.65625 0 L 3.65625 -29.015625 L 9.8125 -29.015625 L 9.8125 -5.078125 L 21.578125 -5.078125 L 21.578125 0 Z M 3.65625 0 "/></g></g></g><g fill="rgb(96.469116%, 52.938843%, 7.058716%)" fill-opacity="1"><g transform="translate(315.747325, 89.534697)"><g><path d="M 21.421875 0 L 19.3125 -6.90625 L 8.734375 -6.90625 L 6.625 0 L 0 0 L 10.25 -29.140625 L 17.765625 -29.140625 L 28.046875 0 Z M 17.84375 -12.0625 C 15.894531 -18.320312 14.796875 -21.863281 14.546875 -22.6875 C 14.304688 -23.507812 14.132812 -24.160156 14.03125 -24.640625 C 13.59375 -22.941406 12.34375 -18.75 10.28125 -12.0625 Z M 10.59375 -31.640625 L 10.59375 -32.171875 C 12.863281 -34.816406 14.414062 -36.804688 15.25 -38.140625 L 22.046875 -38.140625 L 22.046875 -37.734375 C 21.359375 -37.046875 20.179688 -36.019531 18.515625 -34.65625 C 16.859375 -33.300781 15.5625 -32.296875 14.625 -31.640625 Z M 10.59375 -31.640625 "/></g></g></g><g fill="rgb(14.118958%, 61.959839%, 74.119568%)" fill-opacity="1"><g transform="translate(140.898223, 110.203705)"><g><path d="M 5.984375 0 L 3.5 0 L 3.5 -9.625 L 0.328125 -9.625 L 0.328125 -11.6875 L 9.15625 -11.6875 L 9.15625 -9.625 L 5.984375 -9.625 Z M 5.984375 0 "/></g></g></g><g fill="rgb(14.118958%, 61.959839%, 74.119568%)" fill-opacity="1"><g transform="translate(152.128829, 110.203705)"><g><path d="M 3.953125 -6.5 L 4.75 -6.5 C 5.53125 -6.5 6.109375 -6.628906 6.484375 -6.890625 C 6.859375 -7.148438 7.046875 -7.5625 7.046875 -8.125 C 7.046875 -8.675781 6.851562 -9.066406 6.46875 -9.296875 C 6.09375 -9.535156 5.503906 -9.65625 4.703125 -9.65625 L 3.953125 -9.65625 Z M 3.953125 -4.484375 L 3.953125 0 L 1.46875 0 L 1.46875 -11.6875 L 4.875 -11.6875 C 6.46875 -11.6875 7.644531 -11.394531 8.40625 -10.8125 C 9.164062 -10.238281 9.546875 -9.363281 9.546875 -8.1875 C 9.546875 -7.5 9.351562 -6.882812 8.96875 -6.34375 C 8.59375 -5.8125 8.0625 -5.394531 7.375 -5.09375 C 9.132812 -2.46875 10.28125 -0.769531 10.8125 0 L 8.0625 0 L 5.265625 -4.484375 Z M 3.953125 -4.484375 "/></g></g></g><g fill="rgb(14.118958%, 61.959839%, 74.119568%)" fill-opacity="1"><g transform="translate(164.685911, 110.203705)"><g><path d="M 1.46875 0 L 1.46875 -11.6875 L 3.953125 -11.6875 L 3.953125 0 Z M 1.46875 0 "/></g></g></g><g fill="rgb(14.118958%, 61.959839%, 74.119568%)" fill-opacity="1"><g transform="translate(171.857178, 110.203705)"><g><path d="M 1.46875 0 L 1.46875 -11.6875 L 3.953125 -11.6875 L 3.953125 -2.046875 L 8.6875 -2.046875 L 8.6875 0 Z M 1.46875 0 "/></g></g></g><g fill="rgb(14.118958%, 61.959839%, 74.119568%)" fill-opacity="1"><g transform="translate(182.85605, 110.203705)"><g><path d="M 11.046875 0 L 8.578125 0 L 8.578125 -5.046875 L 3.953125 -5.046875 L 3.953125 0 L 1.46875 0 L 1.46875 -11.6875 L 3.953125 -11.6875 L 3.953125 -7.109375 L 8.578125 -7.109375 L 8.578125 -11.6875 L 11.046875 -11.6875 Z M 11.046875 0 "/></g></g></g><g fill="rgb(14.118958%, 61.959839%, 74.119568%)" fill-opacity="1"><g transform="translate(197.13116, 110.203705)"><g><path d="M 8.625 0 L 7.78125 -2.78125 L 3.515625 -2.78125 L 2.671875 0 L 0 0 L 4.125 -11.734375 L 7.15625 -11.734375 L 11.296875 0 Z M 7.1875 -4.859375 C 6.40625 -7.378906 5.960938 -8.804688 5.859375 -9.140625 C 5.765625 -9.472656 5.695312 -9.734375 5.65625 -9.921875 C 5.476562 -9.242188 4.972656 -7.554688 4.140625 -4.859375 Z M 7.1875 -4.859375 "/></g></g></g><g fill="rgb(14.118958%, 61.959839%, 74.119568%)" fill-opacity="1"><g transform="translate(210.175683, 110.203705)"><g><path d="M 8.375 -3.25 C 8.375 -2.1875 7.992188 -1.351562 7.234375 -0.75 C 6.472656 -0.144531 5.414062 0.15625 4.0625 0.15625 C 2.8125 0.15625 1.707031 -0.078125 0.75 -0.546875 L 0.75 -2.84375 C 1.539062 -2.488281 2.207031 -2.238281 2.75 -2.09375 C 3.300781 -1.957031 3.800781 -1.890625 4.25 -1.890625 C 4.789062 -1.890625 5.207031 -1.992188 5.5 -2.203125 C 5.789062 -2.410156 5.9375 -2.71875 5.9375 -3.125 C 5.9375 -3.351562 5.875 -3.554688 5.75 -3.734375 C 5.625 -3.910156 5.4375 -4.082031 5.1875 -4.25 C 4.9375 -4.414062 4.429688 -4.679688 3.671875 -5.046875 C 2.953125 -5.378906 2.414062 -5.695312 2.0625 -6 C 1.707031 -6.3125 1.421875 -6.671875 1.203125 -7.078125 C 0.992188 -7.492188 0.890625 -7.976562 0.890625 -8.53125 C 0.890625 -9.5625 1.238281 -10.375 1.9375 -10.96875 C 2.632812 -11.5625 3.601562 -11.859375 4.84375 -11.859375 C 5.445312 -11.859375 6.023438 -11.785156 6.578125 -11.640625 C 7.128906 -11.492188 7.707031 -11.289062 8.3125 -11.03125 L 7.515625 -9.109375 C 6.890625 -9.359375 6.375 -9.535156 5.96875 -9.640625 C 5.5625 -9.742188 5.160156 -9.796875 4.765625 -9.796875 C 4.296875 -9.796875 3.9375 -9.6875 3.6875 -9.46875 C 3.4375 -9.25 3.3125 -8.960938 3.3125 -8.609375 C 3.3125 -8.390625 3.359375 -8.195312 3.453125 -8.03125 C 3.554688 -7.875 3.71875 -7.71875 3.9375 -7.5625 C 4.164062 -7.414062 4.691406 -7.144531 5.515625 -6.75 C 6.609375 -6.226562 7.359375 -5.703125 7.765625 -5.171875 C 8.171875 -4.648438 8.375 -4.007812 8.375 -3.25 Z M 8.375 -3.25 "/></g></g></g><g fill="rgb(14.118958%, 61.959839%, 74.119568%)" fill-opacity="1"><g transform="translate(220.942816, 110.203705)"><g/></g></g><g fill="rgb(14.118958%, 61.959839%, 74.119568%)" fill-opacity="1"><g transform="translate(226.947418, 110.203705)"><g><path d="M 8.203125 0 L 1.46875 0 L 1.46875 -11.6875 L 8.203125 -11.6875 L 8.203125 -9.65625 L 3.953125 -9.65625 L 3.953125 -7.09375 L 7.90625 -7.09375 L 7.90625 -5.0625 L 3.953125 -5.0625 L 3.953125 -2.046875 L 8.203125 -2.046875 Z M 8.203125 0 "/></g></g></g><g fill="rgb(14.118958%, 61.959839%, 74.119568%)" fill-opacity="1"><g transform="translate(237.866377, 110.203705)"><g/></g></g><g fill="rgb(14.118958%, 61.959839%, 74.119568%)" fill-opacity="1"><g transform="translate(243.870979, 110.203705)"><g><path d="M 8.625 0 L 7.78125 -2.78125 L 3.515625 -2.78125 L 2.671875 0 L 0 0 L 4.125 -11.734375 L 7.15625 -11.734375 L 11.296875 0 Z M 7.1875 -4.859375 C 6.40625 -7.378906 5.960938 -8.804688 5.859375 -9.140625 C 5.765625 -9.472656 5.695312 -9.734375 5.65625 -9.921875 C 5.476562 -9.242188 4.972656 -7.554688 4.140625 -4.859375 Z M 7.1875 -4.859375 "/></g></g></g><g fill="rgb(14.118958%, 61.959839%, 74.119568%)" fill-opacity="1"><g transform="translate(256.915497, 110.203705)"><g><path d="M 8.140625 -11.6875 L 10.640625 -11.6875 L 6.671875 0 L 3.96875 0 L 0 -11.6875 L 2.5 -11.6875 L 4.703125 -4.734375 C 4.828125 -4.328125 4.953125 -3.847656 5.078125 -3.296875 C 5.210938 -2.753906 5.296875 -2.375 5.328125 -2.15625 C 5.378906 -2.644531 5.578125 -3.503906 5.921875 -4.734375 Z M 8.140625 -11.6875 "/></g></g></g><g fill="rgb(14.118958%, 61.959839%, 74.119568%)" fill-opacity="1"><g transform="translate(269.304777, 110.203705)"><g><path d="M 8.203125 0 L 1.46875 0 L 1.46875 -11.6875 L 8.203125 -11.6875 L 8.203125 -9.65625 L 3.953125 -9.65625 L 3.953125 -7.09375 L 7.90625 -7.09375 L 7.90625 -5.0625 L 3.953125 -5.0625 L 3.953125 -2.046875 L 8.203125 -2.046875 Z M 8.203125 0 "/></g></g></g><g fill="rgb(14.118958%, 61.959839%, 74.119568%)" fill-opacity="1"><g transform="translate(280.223745, 110.203705)"><g><path d="M 11.84375 0 L 8.6875 0 L 3.609375 -8.84375 L 3.53125 -8.84375 C 3.632812 -7.28125 3.6875 -6.164062 3.6875 -5.5 L 3.6875 0 L 1.46875 0 L 1.46875 -11.6875 L 4.59375 -11.6875 L 9.671875 -2.9375 L 9.734375 -2.9375 C 9.648438 -4.457031 9.609375 -5.53125 9.609375 -6.15625 L 9.609375 -11.6875 L 11.84375 -11.6875 Z M 11.84375 0 "/></g></g></g><g fill="rgb(14.118958%, 61.959839%, 74.119568%)" fill-opacity="1"><g transform="translate(295.281961, 110.203705)"><g><path d="M 5.984375 0 L 3.5 0 L 3.5 -9.625 L 0.328125 -9.625 L 0.328125 -11.6875 L 9.15625 -11.6875 L 9.15625 -9.625 L 5.984375 -9.625 Z M 5.984375 0 "/></g></g></g><g fill="rgb(14.118958%, 61.959839%, 74.119568%)" fill-opacity="1"><g transform="translate(306.512571, 110.203705)"><g><path d="M 10.984375 -11.6875 L 10.984375 -4.125 C 10.984375 -3.257812 10.789062 -2.5 10.40625 -1.84375 C 10.019531 -1.195312 9.460938 -0.703125 8.734375 -0.359375 C 8.003906 -0.015625 7.140625 0.15625 6.140625 0.15625 C 4.640625 0.15625 3.472656 -0.226562 2.640625 -1 C 1.804688 -1.769531 1.390625 -2.820312 1.390625 -4.15625 L 1.390625 -11.6875 L 3.859375 -11.6875 L 3.859375 -4.53125 C 3.859375 -3.632812 4.039062 -2.972656 4.40625 -2.546875 C 4.769531 -2.128906 5.367188 -1.921875 6.203125 -1.921875 C 7.015625 -1.921875 7.601562 -2.128906 7.96875 -2.546875 C 8.332031 -2.972656 8.515625 -3.640625 8.515625 -4.546875 L 8.515625 -11.6875 Z M 10.984375 -11.6875 "/></g></g></g><g fill="rgb(14.118958%, 61.959839%, 74.119568%)" fill-opacity="1"><g transform="translate(320.63586, 110.203705)"><g><path d="M 3.953125 -6.5 L 4.75 -6.5 C 5.53125 -6.5 6.109375 -6.628906 6.484375 -6.890625 C 6.859375 -7.148438 7.046875 -7.5625 7.046875 -8.125 C 7.046875 -8.675781 6.851562 -9.066406 6.46875 -9.296875 C 6.09375 -9.535156 5.503906 -9.65625 4.703125 -9.65625 L 3.953125 -9.65625 Z M 3.953125 -4.484375 L 3.953125 0 L 1.46875 0 L 1.46875 -11.6875 L 4.875 -11.6875 C 6.46875 -11.6875 7.644531 -11.394531 8.40625 -10.8125 C 9.164062 -10.238281 9.546875 -9.363281 9.546875 -8.1875 C 9.546875 -7.5 9.351562 -6.882812 8.96875 -6.34375 C 8.59375 -5.8125 8.0625 -5.394531 7.375 -5.09375 C 9.132812 -2.46875 10.28125 -0.769531 10.8125 0 L 8.0625 0 L 5.265625 -4.484375 Z M 3.953125 -4.484375 "/></g></g></g><g fill="rgb(14.118958%, 61.959839%, 74.119568%)" fill-opacity="1"><g transform="translate(333.192948, 110.203705)"><g><path d="M 8.625 0 L 7.78125 -2.78125 L 3.515625 -2.78125 L 2.671875 0 L 0 0 L 4.125 -11.734375 L 7.15625 -11.734375 L 11.296875 0 Z M 7.1875 -4.859375 C 6.40625 -7.378906 5.960938 -8.804688 5.859375 -9.140625 C 5.765625 -9.472656 5.695312 -9.734375 5.65625 -9.921875 C 5.476562 -9.242188 4.972656 -7.554688 4.140625 -4.859375 Z M 7.1875 -4.859375 "/></g></g></g><g fill="rgb(14.118958%, 61.959839%, 74.119568%)" fill-opacity="1"><g transform="translate(346.237475, 110.203705)"><g><path d="M 8.375 -3.25 C 8.375 -2.1875 7.992188 -1.351562 7.234375 -0.75 C 6.472656 -0.144531 5.414062 0.15625 4.0625 0.15625 C 2.8125 0.15625 1.707031 -0.078125 0.75 -0.546875 L 0.75 -2.84375 C 1.539062 -2.488281 2.207031 -2.238281 2.75 -2.09375 C 3.300781 -1.957031 3.800781 -1.890625 4.25 -1.890625 C 4.789062 -1.890625 5.207031 -1.992188 5.5 -2.203125 C 5.789062 -2.410156 5.9375 -2.71875 5.9375 -3.125 C 5.9375 -3.351562 5.875 -3.554688 5.75 -3.734375 C 5.625 -3.910156 5.4375 -4.082031 5.1875 -4.25 C 4.9375 -4.414062 4.429688 -4.679688 3.671875 -5.046875 C 2.953125 -5.378906 2.414062 -5.695312 2.0625 -6 C 1.707031 -6.3125 1.421875 -6.671875 1.203125 -7.078125 C 0.992188 -7.492188 0.890625 -7.976562 0.890625 -8.53125 C 0.890625 -9.5625 1.238281 -10.375 1.9375 -10.96875 C 2.632812 -11.5625 3.601562 -11.859375 4.84375 -11.859375 C 5.445312 -11.859375 6.023438 -11.785156 6.578125 -11.640625 C 7.128906 -11.492188 7.707031 -11.289062 8.3125 -11.03125 L 7.515625 -9.109375 C 6.890625 -9.359375 6.375 -9.535156 5.96875 -9.640625 C 5.5625 -9.742188 5.160156 -9.796875 4.765625 -9.796875 C 4.296875 -9.796875 3.9375 -9.6875 3.6875 -9.46875 C 3.4375 -9.25 3.3125 -8.960938 3.3125 -8.609375 C 3.3125 -8.390625 3.359375 -8.195312 3.453125 -8.03125 C 3.554688 -7.875 3.71875 -7.71875 3.9375 -7.5625 C 4.164062 -7.414062 4.691406 -7.144531 5.515625 -6.75 C 6.609375 -6.226562 7.359375 -5.703125 7.765625 -5.171875 C 8.171875 -4.648438 8.375 -4.007812 8.375 -3.25 Z M 8.375 -3.25 "/></g></g></g></svg>