<svg xmlns="http://www.w3.org/2000/svg" xmlns:xlink="http://www.w3.org/1999/xlink" width="500" zoomAndPan="magnify" viewBox="0 0 375 374.999991" height="500" preserveAspectRatio="xMidYMid meet" version="1.0"><defs><g><g id="id1"/><g id="id2"/></g><clipPath id="id3"><path d="M 101 98 L 286 98 L 286 252.175781 L 101 252.175781 Z M 101 98 " clip-rule="nonzero"/></clipPath><clipPath id="id4"><path d="M 78 5.648438 L 212 5.648438 L 212 168 L 78 168 Z M 78 5.648438 " clip-rule="nonzero"/></clipPath></defs><g clip-path="url(#id3)"><path fill="rgb(25.878906%, 61.959839%, 74.119568%)" d="M 165.75 203.546875 C 174.585938 202.390625 182.992188 194.507812 183.152344 194.363281 C 183.132812 194.417969 183.429688 194.984375 191.375 200.410156 C 200.917969 206.933594 209.582031 197.195312 209.582031 197.195312 C 222.570312 205.273438 231.492188 201.453125 231.492188 201.453125 C 223.589844 206.578125 212.347656 203.191406 212.347656 203.191406 C 195.132812 212.878906 183.492188 201.285156 183.492188 201.285156 C 176.265625 204.730469 165.75 203.546875 165.75 203.546875 Z M 101.40625 195.921875 C 106.902344 207.921875 114.789062 218.59375 124.464844 227.332031 C 152.230469 222.882812 162.957031 210.257812 162.957031 210.257812 C 162.957031 210.257812 171.003906 224.234375 190.023438 224.101562 C 209.039062 223.96875 213.234375 210.257812 213.234375 210.257812 C 213.234375 210.257812 220.011719 219.117188 237.566406 223.421875 C 248.84375 226.1875 262.066406 219.179688 265.929688 213.847656 L 265.933594 213.839844 C 259.1875 212.179688 254.449219 210.421875 254.449219 210.421875 C 240.914062 218.550781 226.675781 212.640625 226.675781 212.640625 C 240.953125 215.203125 252.824219 197.402344 252.824219 197.402344 C 252.824219 197.402344 257.980469 203.964844 269.421875 208.90625 C 279.476562 193.703125 285.332031 175.480469 285.332031 155.890625 C 285.332031 134.261719 278.195312 114.296875 266.148438 98.222656 C 264.5 99.390625 262.589844 100.949219 260.175781 103.550781 C 240.457031 124.808594 212.28125 145.769531 190.292969 159.507812 C 160.214844 178.296875 128.65625 190.484375 101.40625 195.921875 Z M 126.527344 229.140625 C 143.347656 243.496094 165.167969 252.160156 189.019531 252.160156 C 209.898438 252.160156 229.226562 245.519531 245.003906 234.234375 C 228.179688 234.640625 216.421875 225.070312 216.421875 225.070312 C 190.070312 243.964844 162.957031 224.234375 162.957031 224.234375 C 144.203125 229.464844 132.734375 229.757812 126.527344 229.140625 " fill-opacity="1" fill-rule="nonzero"/></g><path fill="rgb(25.878906%, 61.959839%, 74.119568%)" d="M 190.292969 159.507812 C 212.28125 145.769531 240.457031 124.808594 260.175781 103.550781 C 262.589844 100.949219 264.5 99.390625 266.148438 98.222656 C 266.605469 98.835938 267.058594 99.457031 267.5 100.082031 C 255.785156 118.121094 233.101562 148.964844 200.992188 174.328125 C 172.515625 196.816406 143.183594 212.941406 118.246094 221.183594 C 111.378906 213.75 105.671875 205.238281 101.40625 195.921875 C 128.65625 190.484375 160.214844 178.296875 190.292969 159.507812 " fill-opacity="1" fill-rule="nonzero"/><path fill="rgb(96.469116%, 52.938843%, 7.058716%)" d="M 256.617188 87.320312 C 246.355469 98.515625 227.25 117.097656 200.402344 133.757812 C 177.523438 147.957031 153.648438 158.636719 132.84375 164.328125 C 128.453125 165.523438 124.203125 166.503906 120.128906 167.246094 C 113.980469 168.367188 108.230469 168.949219 103.007812 168.949219 C 99.460938 168.949219 96.273438 168.679688 93.480469 168.15625 C 92.96875 164.140625 92.707031 160.046875 92.707031 155.890625 C 92.707031 120.910156 111.371094 90.285156 139.289062 73.429688 C 147.882812 68.238281 157.359375 64.355469 167.429688 62.050781 C 167.484375 62.035156 167.535156 62.023438 167.589844 62.015625 C 170.207031 61.417969 172.867188 60.929688 175.5625 60.554688 C 175.9375 60.5 176.316406 60.453125 176.691406 60.402344 C 179.355469 60.0625 182.050781 59.832031 184.78125 59.714844 C 184.957031 59.707031 185.132812 59.695312 185.308594 59.691406 C 186.539062 59.644531 187.777344 59.621094 189.019531 59.621094 C 193.914062 59.621094 198.722656 59.984375 203.421875 60.691406 C 224.007812 63.777344 242.460938 73.375 256.617188 87.320312 " fill-opacity="1" fill-rule="nonzero"/><path fill="rgb(25.878906%, 61.959839%, 74.119568%)" d="M 308.21875 47.300781 C 315.695312 35.84375 319.738281 25.671875 317.324219 24.027344 C 314.917969 22.386719 306.914062 29.859375 298.96875 40.996094 L 268.453125 41.226562 L 263.566406 48.386719 L 287.492188 58.859375 C 284.410156 63.933594 281.222656 69.375 278.429688 74.382812 L 262.832031 73.5625 L 260.492188 76.992188 L 273.835938 82.972656 C 273.601562 83.441406 249.539062 115.425781 205.855469 142.539062 C 146.761719 179.210938 87.277344 190.304688 72.964844 167.277344 C 63.046875 151.324219 77.429688 123.179688 106.855469 95.191406 C 59.78125 131.648438 33.8125 172.546875 47.023438 193.796875 C 62.769531 219.128906 128.339844 207.117188 193.238281 166.578125 C 245.714844 133.789062 278.140625 86.164062 278.28125 86.003906 L 283.90625 93.796875 L 286.246094 90.371094 L 284.609375 78.597656 C 288.257812 74.171875 292.164062 69.21875 295.769531 64.5 L 301.097656 80.769531 L 305.984375 73.605469 L 308.21875 47.300781 " fill-opacity="1" fill-rule="nonzero"/><g clip-path="url(#id4)"><path fill="rgb(25.878906%, 61.959839%, 74.119568%)" d="M 187.847656 61.765625 C 190.921875 64.410156 194.65625 66.152344 198.640625 66.921875 C 202.863281 67.734375 206.804688 69.011719 211.144531 71.070312 C 211.144531 71.070312 208.515625 66.101562 203.421875 60.691406 C 195.820312 52.613281 182.726562 43.566406 164.714844 48.65625 C 164.976562 48.488281 165.242188 48.320312 165.511719 48.152344 C 164.214844 47.636719 162.707031 47.214844 161.003906 47.027344 C 161.003906 47.027344 161.898438 46.753906 163.375 46.742188 C 166.167969 46.707031 168.914062 46.027344 171.355469 44.675781 L 171.4375 44.632812 C 169.964844 43.960938 169.160156 42.835938 167.082031 42.605469 C 167.082031 42.605469 168.277344 42.246094 170.183594 42.332031 C 173.339844 42.476562 176.492188 41.890625 179.34375 40.519531 C 179.503906 40.445312 179.664062 40.367188 179.824219 40.289062 C 178.226562 39.46875 176.1875 38.722656 173.746094 38.453125 C 173.746094 38.453125 175.429688 37.894531 177.78125 37.902344 C 182.457031 37.925781 187.082031 36.964844 191.421875 35.21875 C 191.601562 35.148438 191.773438 35.078125 191.9375 35.015625 C 188.128906 33.878906 183.019531 32.730469 180.554688 32.457031 C 180.554688 32.457031 192.707031 31.191406 201.675781 32.082031 C 201.675781 32.082031 171.394531 11.203125 154.300781 49.28125 C 157.136719 39.773438 157.96875 23.21875 142.859375 12.921875 C 135.769531 8.089844 126.039062 5.644531 126.039062 5.644531 C 128.726562 8.289062 141.96875 23.925781 143.144531 26.316406 C 143.042969 26.242188 139.785156 23.832031 135.964844 22.226562 C 136.023438 22.410156 136.082031 22.589844 136.140625 22.773438 C 137.175781 26.085938 143.433594 33.714844 144.152344 35.175781 C 144.152344 35.175781 141.519531 33.210938 138.1875 31.628906 C 138.96875 36.433594 141.199219 41.582031 141.398438 45.921875 C 126.15625 16.277344 92.859375 25.488281 92.859375 25.488281 C 103.808594 26.652344 118.023438 31.1875 118.023438 31.1875 C 115.003906 30.902344 108.609375 31.003906 103.777344 31.417969 C 103.9375 31.523438 104.109375 31.636719 104.289062 31.757812 C 109.070312 34.9375 114.394531 37.246094 120.019531 38.402344 C 122.816406 38.976562 124.667969 40.050781 124.667969 40.050781 C 121.683594 39.769531 119.058594 40.152344 116.945312 40.738281 L 117.195312 40.929688 C 120.390625 43.355469 124.144531 44.929688 128.105469 45.601562 C 130.316406 45.980469 131.605469 46.675781 131.605469 46.675781 C 129.0625 46.4375 127.820312 47.578125 125.890625 48.015625 C 125.980469 48.09375 126.0625 48.164062 126.144531 48.234375 C 126.835938 48.832031 127.566406 49.371094 128.335938 49.859375 C 88.503906 36.988281 78.136719 65.808594 78.136719 65.808594 C 87.085938 59.585938 100.621094 53.765625 100.886719 53.652344 C 98.417969 55.414062 93.652344 59.671875 90.273438 63.144531 C 90.304688 63.140625 90.335938 63.136719 90.367188 63.132812 C 96.375 62.335938 102.167969 60.402344 107.53125 57.574219 C 109.835938 56.355469 111.71875 56 111.71875 56 C 109.277344 57.738281 107.542969 59.75 106.332031 61.574219 C 106.382812 61.570312 106.4375 61.566406 106.488281 61.5625 C 110.5625 61.304688 114.496094 60.03125 117.992188 57.925781 C 119.832031 56.816406 121.214844 56.488281 121.296875 56.472656 C 119.222656 57.953125 119.03125 59.628906 117.863281 61.222656 L 117.941406 61.222656 C 121.316406 61.203125 124.648438 60.375 127.597656 58.742188 C 129.191406 57.855469 130.34375 57.589844 130.414062 57.574219 C 128.710938 58.785156 127.355469 60.132812 126.277344 61.453125 C 127.863281 61.535156 129.382812 61.636719 130.820312 61.753906 C 108.855469 67.15625 108.984375 92.613281 108.984375 92.613281 C 110.28125 89.890625 111.957031 87.535156 113.878906 85.480469 C 114.824219 80.484375 116.835938 76.578125 116.835938 76.578125 C 116.394531 79.085938 117.34375 84.855469 117.359375 84.839844 C 120.519531 82.070312 121.871094 77.039062 123.5 73.167969 C 123.921875 72.167969 124.21875 71.589844 124.21875 71.589844 C 123.789062 74.03125 123.585938 76.214844 123.535156 78.144531 C 123.558594 78.128906 123.585938 78.117188 123.609375 78.105469 C 127.769531 75.785156 131.09375 72.207031 133.003906 67.84375 C 133.320312 67.113281 132.863281 71.734375 132.84375 73.792969 C 138.484375 68.601562 141.960938 70.0625 141.960938 70.0625 C 141.125 71.054688 140.226562 72.175781 139.289062 73.429688 C 129.105469 87.078125 114.273438 116.414062 120.128906 167.246094 C 124.203125 166.503906 128.453125 165.523438 132.84375 164.328125 C 128.066406 144.425781 122.378906 103.488281 145.640625 73.089844 C 145.648438 73.316406 146.496094 71.726562 147.242188 70.914062 C 147.382812 71.03125 145.742188 77.921875 145.640625 80.792969 L 145.636719 80.859375 C 147.007812 79.917969 148.425781 79.800781 149.730469 78.089844 C 149.710938 78.160156 149.402344 79.316406 148.417969 80.835938 C 146.554688 83.730469 145.378906 87.011719 145.054688 90.4375 C 145.050781 90.480469 145.046875 90.519531 145.042969 90.5625 C 146.613281 89.585938 148.351562 88.179688 149.878906 86.171875 C 149.859375 86.265625 149.496094 87.804688 148.441406 89.664062 C 145.921875 94.101562 144.144531 98.925781 143.320312 103.964844 C 143.316406 103.992188 143.3125 104.019531 143.308594 104.042969 C 146.320312 101.285156 150.035156 97.382812 151.582031 95.351562 C 151.472656 95.582031 146.222656 106.820312 140.75 114.195312 C 140.75 114.195312 165.238281 103.398438 157.179688 72.519531 C 158.347656 77.160156 161.0625 81.253906 164.882812 84.128906 C 164.914062 84.152344 164.945312 84.175781 164.972656 84.199219 C 165.398438 82.496094 165.5625 78.023438 165.640625 75.902344 C 165.640625 75.902344 170.570312 81.851562 172.5625 90.339844 L 172.621094 90.394531 C 173.019531 88.75 173.535156 84.359375 173.613281 82.34375 C 173.613281 82.34375 177.253906 89.746094 183.234375 105.773438 C 183.234375 105.773438 190.601562 78.195312 169.40625 63.21875 C 172.214844 64.675781 175.355469 65.425781 178.546875 65.40625 L 178.636719 65.402344 C 178.160156 64.304688 175.582031 61.375 175.195312 60.824219 C 175.195312 60.824219 184.542969 65.410156 188.367188 65.679688 L 188.476562 65.6875 C 187.898438 64.378906 185.214844 60.242188 185.039062 59.988281 C 185.039062 59.988281 186.890625 60.941406 187.847656 61.765625 " fill-opacity="1" fill-rule="nonzero"/></g><g fill="rgb(14.118958%, 61.959839%, 74.119568%)" fill-opacity="1"><g transform="translate(10.465427, 334.707999)"><g><path d="M 6.421875 -51.015625 L 22.296875 -51.015625 C 29.523438 -51.015625 34.773438 -49.984375 38.046875 -47.921875 C 41.316406 -45.859375 42.953125 -42.582031 42.953125 -38.09375 C 42.953125 -35.050781 42.234375 -32.550781 40.796875 -30.59375 C 39.367188 -28.644531 37.46875 -27.472656 35.09375 -27.078125 L 35.09375 -26.71875 C 38.332031 -26 40.664062 -24.648438 42.09375 -22.671875 C 43.519531 -20.703125 44.234375 -18.078125 44.234375 -14.796875 C 44.234375 -10.140625 42.550781 -6.507812 39.1875 -3.90625 C 35.832031 -1.300781 31.269531 0 25.5 0 L 6.421875 0 Z M 17.234375 -30.8125 L 23.515625 -30.8125 C 26.441406 -30.8125 28.5625 -31.265625 29.875 -32.171875 C 31.195312 -33.078125 31.859375 -34.578125 31.859375 -36.671875 C 31.859375 -38.617188 31.140625 -40.015625 29.703125 -40.859375 C 28.273438 -41.710938 26.015625 -42.140625 22.921875 -42.140625 L 17.234375 -42.140625 Z M 17.234375 -22.21875 L 17.234375 -8.9375 L 24.28125 -8.9375 C 27.257812 -8.9375 29.457031 -9.503906 30.875 -10.640625 C 32.289062 -11.773438 33 -13.519531 33 -15.875 C 33 -20.101562 29.976562 -22.21875 23.9375 -22.21875 Z M 17.234375 -22.21875 "/></g></g></g><g fill="rgb(14.118958%, 61.959839%, 74.119568%)" fill-opacity="1"><g transform="translate(70.677191, 334.707999)"><g><path d="M 52.71875 -25.578125 C 52.71875 -17.128906 50.625 -10.632812 46.4375 -6.09375 C 42.25 -1.5625 36.25 0.703125 28.4375 0.703125 C 20.625 0.703125 14.625 -1.5625 10.4375 -6.09375 C 6.25 -10.632812 4.15625 -17.148438 4.15625 -25.640625 C 4.15625 -34.128906 6.253906 -40.613281 10.453125 -45.09375 C 14.648438 -49.570312 20.664062 -51.8125 28.5 -51.8125 C 36.34375 -51.8125 42.335938 -49.554688 46.484375 -45.046875 C 50.640625 -40.535156 52.71875 -34.046875 52.71875 -25.578125 Z M 15.484375 -25.578125 C 15.484375 -19.878906 16.566406 -15.585938 18.734375 -12.703125 C 20.898438 -9.816406 24.132812 -8.375 28.4375 -8.375 C 37.0625 -8.375 41.375 -14.109375 41.375 -25.578125 C 41.375 -37.066406 37.082031 -42.8125 28.5 -42.8125 C 24.195312 -42.8125 20.953125 -41.363281 18.765625 -38.46875 C 16.578125 -35.570312 15.484375 -31.273438 15.484375 -25.578125 Z M 15.484375 -25.578125 "/></g></g></g><g fill="rgb(14.118958%, 61.959839%, 74.119568%)" fill-opacity="1"><g transform="translate(139.74805, 334.707999)"><g><path d="M 17.234375 -28.359375 L 20.71875 -28.359375 C 24.144531 -28.359375 26.671875 -28.925781 28.296875 -30.0625 C 29.921875 -31.207031 30.734375 -33.003906 30.734375 -35.453125 C 30.734375 -37.867188 29.898438 -39.585938 28.234375 -40.609375 C 26.578125 -41.628906 24.003906 -42.140625 20.515625 -42.140625 L 17.234375 -42.140625 Z M 17.234375 -19.578125 L 17.234375 0 L 6.421875 0 L 6.421875 -51.015625 L 21.28125 -51.015625 C 28.207031 -51.015625 33.332031 -49.75 36.65625 -47.21875 C 39.988281 -44.695312 41.65625 -40.867188 41.65625 -35.734375 C 41.65625 -32.722656 40.828125 -30.050781 39.171875 -27.71875 C 37.523438 -25.382812 35.191406 -23.550781 32.171875 -22.21875 C 39.847656 -10.757812 44.847656 -3.351562 47.171875 0 L 35.171875 0 L 22.984375 -19.578125 Z M 17.234375 -19.578125 "/></g></g></g><g fill="rgb(14.118958%, 61.959839%, 74.119568%)" fill-opacity="1"><g transform="translate(199.122727, 334.707999)"><g><path d="M 37.640625 0 L 33.953125 -12.140625 L 15.34375 -12.140625 L 11.65625 0 L 0 0 L 18 -51.21875 L 31.21875 -51.21875 L 49.296875 0 Z M 31.359375 -21.21875 C 27.941406 -32.21875 26.019531 -38.4375 25.59375 -39.875 C 25.164062 -41.320312 24.859375 -42.460938 24.671875 -43.296875 C 23.898438 -40.316406 21.703125 -32.957031 18.078125 -21.21875 Z M 31.359375 -21.21875 "/></g></g></g><g fill="rgb(96.469116%, 52.938843%, 7.058716%)" fill-opacity="1"><g transform="translate(260.596585, 334.707999)"><g><path d="M 6.421875 0 L 6.421875 -51.015625 L 17.234375 -51.015625 L 17.234375 -8.9375 L 37.921875 -8.9375 L 37.921875 0 Z M 6.421875 0 "/></g></g></g><g fill="rgb(96.469116%, 52.938843%, 7.058716%)" fill-opacity="1"><g transform="translate(313.169993, 334.707999)"><g><path d="M 37.640625 0 L 33.953125 -12.140625 L 15.34375 -12.140625 L 11.65625 0 L 0 0 L 18 -51.21875 L 31.21875 -51.21875 L 49.296875 0 Z M 31.359375 -21.21875 C 27.941406 -32.21875 26.019531 -38.4375 25.59375 -39.875 C 25.164062 -41.320312 24.859375 -42.460938 24.671875 -43.296875 C 23.898438 -40.316406 21.703125 -32.957031 18.078125 -21.21875 Z M 18.578125 -55.296875 L 18.578125 -56.234375 C 22.578125 -60.890625 25.3125 -64.390625 26.78125 -66.734375 L 38.71875 -66.734375 L 38.71875 -66.015625 C 37.507812 -64.796875 35.441406 -62.992188 32.515625 -60.609375 C 29.597656 -58.234375 27.316406 -56.460938 25.671875 -55.296875 Z M 18.578125 -55.296875 "/></g></g></g><g fill="rgb(14.118958%, 61.959839%, 74.119568%)" fill-opacity="1"><g transform="translate(3.419962, 365.359579)"><g><path d="M 8.59375 0 L 5.03125 0 L 5.03125 -13.828125 L 0.46875 -13.828125 L 0.46875 -16.796875 L 13.15625 -16.796875 L 13.15625 -13.828125 L 8.59375 -13.828125 Z M 8.59375 0 "/></g></g></g><g fill="rgb(14.118958%, 61.959839%, 74.119568%)" fill-opacity="1"><g transform="translate(22.980694, 365.359579)"><g><path d="M 5.671875 -9.34375 L 6.828125 -9.34375 C 7.953125 -9.34375 8.78125 -9.53125 9.3125 -9.90625 C 9.851562 -10.28125 10.125 -10.867188 10.125 -11.671875 C 10.125 -12.472656 9.847656 -13.039062 9.296875 -13.375 C 8.753906 -13.707031 7.90625 -13.875 6.75 -13.875 L 5.671875 -13.875 Z M 5.671875 -6.453125 L 5.671875 0 L 2.109375 0 L 2.109375 -16.796875 L 7.015625 -16.796875 C 9.296875 -16.796875 10.984375 -16.378906 12.078125 -15.546875 C 13.171875 -14.722656 13.71875 -13.460938 13.71875 -11.765625 C 13.71875 -10.773438 13.445312 -9.894531 12.90625 -9.125 C 12.363281 -8.351562 11.59375 -7.75 10.59375 -7.3125 C 13.125 -3.539062 14.769531 -1.101562 15.53125 0 L 11.578125 0 L 7.578125 -6.453125 Z M 5.671875 -6.453125 "/></g></g></g><g fill="rgb(14.118958%, 61.959839%, 74.119568%)" fill-opacity="1"><g transform="translate(44.449122, 365.359579)"><g><path d="M 2.109375 0 L 2.109375 -16.796875 L 5.671875 -16.796875 L 5.671875 0 Z M 2.109375 0 "/></g></g></g><g fill="rgb(14.118958%, 61.959839%, 74.119568%)" fill-opacity="1"><g transform="translate(58.171845, 365.359579)"><g><path d="M 2.109375 0 L 2.109375 -16.796875 L 5.671875 -16.796875 L 5.671875 -2.9375 L 12.484375 -2.9375 L 12.484375 0 Z M 2.109375 0 "/></g></g></g><g fill="rgb(14.118958%, 61.959839%, 74.119568%)" fill-opacity="1"><g transform="translate(77.399305, 365.359579)"><g><path d="M 15.875 0 L 12.328125 0 L 12.328125 -7.25 L 5.671875 -7.25 L 5.671875 0 L 2.109375 0 L 2.109375 -16.796875 L 5.671875 -16.796875 L 5.671875 -10.21875 L 12.328125 -10.21875 L 12.328125 -16.796875 L 15.875 -16.796875 Z M 15.875 0 "/></g></g></g><g fill="rgb(14.118958%, 61.959839%, 74.119568%)" fill-opacity="1"><g transform="translate(101.338548, 365.359579)"><g><path d="M 12.390625 0 L 11.171875 -4 L 5.0625 -4 L 3.84375 0 L 0 0 L 5.921875 -16.859375 L 10.28125 -16.859375 L 16.234375 0 Z M 10.328125 -6.984375 C 9.203125 -10.609375 8.566406 -12.65625 8.421875 -13.125 C 8.285156 -13.601562 8.1875 -13.984375 8.125 -14.265625 C 7.875 -13.273438 7.148438 -10.847656 5.953125 -6.984375 Z M 10.328125 -6.984375 "/></g></g></g><g fill="rgb(14.118958%, 61.959839%, 74.119568%)" fill-opacity="1"><g transform="translate(123.508, 365.359579)"><g><path d="M 12.03125 -4.671875 C 12.03125 -3.148438 11.484375 -1.953125 10.390625 -1.078125 C 9.296875 -0.203125 7.78125 0.234375 5.84375 0.234375 C 4.039062 0.234375 2.453125 -0.101562 1.078125 -0.78125 L 1.078125 -4.09375 C 2.210938 -3.582031 3.171875 -3.222656 3.953125 -3.015625 C 4.742188 -2.816406 5.460938 -2.71875 6.109375 -2.71875 C 6.890625 -2.71875 7.488281 -2.863281 7.90625 -3.15625 C 8.320312 -3.457031 8.53125 -3.90625 8.53125 -4.5 C 8.53125 -4.820312 8.4375 -5.109375 8.25 -5.359375 C 8.070312 -5.617188 7.804688 -5.867188 7.453125 -6.109375 C 7.097656 -6.347656 6.375 -6.726562 5.28125 -7.25 C 4.25 -7.726562 3.472656 -8.191406 2.953125 -8.640625 C 2.441406 -9.085938 2.035156 -9.601562 1.734375 -10.1875 C 1.429688 -10.78125 1.28125 -11.472656 1.28125 -12.265625 C 1.28125 -13.742188 1.78125 -14.910156 2.78125 -15.765625 C 3.789062 -16.617188 5.1875 -17.046875 6.96875 -17.046875 C 7.832031 -17.046875 8.660156 -16.941406 9.453125 -16.734375 C 10.253906 -16.523438 11.085938 -16.234375 11.953125 -15.859375 L 10.796875 -13.09375 C 9.898438 -13.457031 9.160156 -13.710938 8.578125 -13.859375 C 7.992188 -14.003906 7.414062 -14.078125 6.84375 -14.078125 C 6.175781 -14.078125 5.660156 -13.921875 5.296875 -13.609375 C 4.929688 -13.296875 4.75 -12.882812 4.75 -12.375 C 4.75 -12.0625 4.820312 -11.785156 4.96875 -11.546875 C 5.113281 -11.316406 5.34375 -11.09375 5.65625 -10.875 C 5.976562 -10.65625 6.734375 -10.265625 7.921875 -9.703125 C 9.492188 -8.953125 10.570312 -8.195312 11.15625 -7.4375 C 11.738281 -6.6875 12.03125 -5.765625 12.03125 -4.671875 Z M 12.03125 -4.671875 "/></g></g></g><g fill="rgb(14.118958%, 61.959839%, 74.119568%)" fill-opacity="1"><g transform="translate(142.402192, 365.359579)"><g/></g></g><g fill="rgb(14.118958%, 61.959839%, 74.119568%)" fill-opacity="1"><g transform="translate(154.447066, 365.359579)"><g><path d="M 11.78125 0 L 2.109375 0 L 2.109375 -16.796875 L 11.78125 -16.796875 L 11.78125 -13.875 L 5.671875 -13.875 L 5.671875 -10.1875 L 11.359375 -10.1875 L 11.359375 -7.265625 L 5.671875 -7.265625 L 5.671875 -2.9375 L 11.78125 -2.9375 Z M 11.78125 0 "/></g></g></g><g fill="rgb(14.118958%, 61.959839%, 74.119568%)" fill-opacity="1"><g transform="translate(173.559608, 365.359579)"><g/></g></g><g fill="rgb(14.118958%, 61.959839%, 74.119568%)" fill-opacity="1"><g transform="translate(185.604482, 365.359579)"><g><path d="M 12.390625 0 L 11.171875 -4 L 5.0625 -4 L 3.84375 0 L 0 0 L 5.921875 -16.859375 L 10.28125 -16.859375 L 16.234375 0 Z M 10.328125 -6.984375 C 9.203125 -10.609375 8.566406 -12.65625 8.421875 -13.125 C 8.285156 -13.601562 8.1875 -13.984375 8.125 -14.265625 C 7.875 -13.273438 7.148438 -10.847656 5.953125 -6.984375 Z M 10.328125 -6.984375 "/></g></g></g><g fill="rgb(14.118958%, 61.959839%, 74.119568%)" fill-opacity="1"><g transform="translate(207.773935, 365.359579)"><g><path d="M 11.703125 -16.796875 L 15.296875 -16.796875 L 9.578125 0 L 5.703125 0 L 0 -16.796875 L 3.59375 -16.796875 L 6.75 -6.796875 C 6.925781 -6.210938 7.109375 -5.523438 7.296875 -4.734375 C 7.484375 -3.953125 7.601562 -3.410156 7.65625 -3.109375 C 7.738281 -3.804688 8.023438 -5.035156 8.515625 -6.796875 Z M 11.703125 -16.796875 "/></g></g></g><g fill="rgb(14.118958%, 61.959839%, 74.119568%)" fill-opacity="1"><g transform="translate(229.001031, 365.359579)"><g><path d="M 11.78125 0 L 2.109375 0 L 2.109375 -16.796875 L 11.78125 -16.796875 L 11.78125 -13.875 L 5.671875 -13.875 L 5.671875 -10.1875 L 11.359375 -10.1875 L 11.359375 -7.265625 L 5.671875 -7.265625 L 5.671875 -2.9375 L 11.78125 -2.9375 Z M 11.78125 0 "/></g></g></g><g fill="rgb(14.118958%, 61.959839%, 74.119568%)" fill-opacity="1"><g transform="translate(248.113573, 365.359579)"><g><path d="M 17.015625 0 L 12.484375 0 L 5.1875 -12.703125 L 5.078125 -12.703125 C 5.222656 -10.460938 5.296875 -8.863281 5.296875 -7.90625 L 5.296875 0 L 2.109375 0 L 2.109375 -16.796875 L 6.609375 -16.796875 L 13.90625 -4.21875 L 13.984375 -4.21875 C 13.867188 -6.394531 13.8125 -7.9375 13.8125 -8.84375 L 13.8125 -16.796875 L 17.015625 -16.796875 Z M 17.015625 0 "/></g></g></g><g fill="rgb(14.118958%, 61.959839%, 74.119568%)" fill-opacity="1"><g transform="translate(273.179031, 365.359579)"><g><path d="M 8.59375 0 L 5.03125 0 L 5.03125 -13.828125 L 0.46875 -13.828125 L 0.46875 -16.796875 L 13.15625 -16.796875 L 13.15625 -13.828125 L 8.59375 -13.828125 Z M 8.59375 0 "/></g></g></g><g fill="rgb(14.118958%, 61.959839%, 74.119568%)" fill-opacity="1"><g transform="translate(292.739767, 365.359579)"><g><path d="M 15.78125 -16.796875 L 15.78125 -5.921875 C 15.78125 -4.679688 15.503906 -3.59375 14.953125 -2.65625 C 14.398438 -1.726562 13.597656 -1.015625 12.546875 -0.515625 C 11.492188 -0.015625 10.253906 0.234375 8.828125 0.234375 C 6.660156 0.234375 4.976562 -0.316406 3.78125 -1.421875 C 2.59375 -2.535156 2 -4.050781 2 -5.96875 L 2 -16.796875 L 5.546875 -16.796875 L 5.546875 -6.515625 C 5.546875 -5.222656 5.804688 -4.269531 6.328125 -3.65625 C 6.847656 -3.050781 7.710938 -2.75 8.921875 -2.75 C 10.078125 -2.75 10.914062 -3.050781 11.4375 -3.65625 C 11.96875 -4.269531 12.234375 -5.226562 12.234375 -6.53125 L 12.234375 -16.796875 Z M 15.78125 -16.796875 "/></g></g></g><g fill="rgb(14.118958%, 61.959839%, 74.119568%)" fill-opacity="1"><g transform="translate(316.460659, 365.359579)"><g><path d="M 5.671875 -9.34375 L 6.828125 -9.34375 C 7.953125 -9.34375 8.78125 -9.53125 9.3125 -9.90625 C 9.851562 -10.28125 10.125 -10.867188 10.125 -11.671875 C 10.125 -12.472656 9.847656 -13.039062 9.296875 -13.375 C 8.753906 -13.707031 7.90625 -13.875 6.75 -13.875 L 5.671875 -13.875 Z M 5.671875 -6.453125 L 5.671875 0 L 2.109375 0 L 2.109375 -16.796875 L 7.015625 -16.796875 C 9.296875 -16.796875 10.984375 -16.378906 12.078125 -15.546875 C 13.171875 -14.722656 13.71875 -13.460938 13.71875 -11.765625 C 13.71875 -10.773438 13.445312 -9.894531 12.90625 -9.125 C 12.363281 -8.351562 11.59375 -7.75 10.59375 -7.3125 C 13.125 -3.539062 14.769531 -1.101562 15.53125 0 L 11.578125 0 L 7.578125 -6.453125 Z M 5.671875 -6.453125 "/></g></g></g><g fill="rgb(14.118958%, 61.959839%, 74.119568%)" fill-opacity="1"><g transform="translate(337.929091, 365.359579)"><g><path d="M 12.390625 0 L 11.171875 -4 L 5.0625 -4 L 3.84375 0 L 0 0 L 5.921875 -16.859375 L 10.28125 -16.859375 L 16.234375 0 Z M 10.328125 -6.984375 C 9.203125 -10.609375 8.566406 -12.65625 8.421875 -13.125 C 8.285156 -13.601562 8.1875 -13.984375 8.125 -14.265625 C 7.875 -13.273438 7.148438 -10.847656 5.953125 -6.984375 Z M 10.328125 -6.984375 "/></g></g></g><g fill="rgb(14.118958%, 61.959839%, 74.119568%)" fill-opacity="1"><g transform="translate(360.098543, 365.359579)"><g><path d="M 12.03125 -4.671875 C 12.03125 -3.148438 11.484375 -1.953125 10.390625 -1.078125 C 9.296875 -0.203125 7.78125 0.234375 5.84375 0.234375 C 4.039062 0.234375 2.453125 -0.101562 1.078125 -0.78125 L 1.078125 -4.09375 C 2.210938 -3.582031 3.171875 -3.222656 3.953125 -3.015625 C 4.742188 -2.816406 5.460938 -2.71875 6.109375 -2.71875 C 6.890625 -2.71875 7.488281 -2.863281 7.90625 -3.15625 C 8.320312 -3.457031 8.53125 -3.90625 8.53125 -4.5 C 8.53125 -4.820312 8.4375 -5.109375 8.25 -5.359375 C 8.070312 -5.617188 7.804688 -5.867188 7.453125 -6.109375 C 7.097656 -6.347656 6.375 -6.726562 5.28125 -7.25 C 4.25 -7.726562 3.472656 -8.191406 2.953125 -8.640625 C 2.441406 -9.085938 2.035156 -9.601562 1.734375 -10.1875 C 1.429688 -10.78125 1.28125 -11.472656 1.28125 -12.265625 C 1.28125 -13.742188 1.78125 -14.910156 2.78125 -15.765625 C 3.789062 -16.617188 5.1875 -17.046875 6.96875 -17.046875 C 7.832031 -17.046875 8.660156 -16.941406 9.453125 -16.734375 C 10.253906 -16.523438 11.085938 -16.234375 11.953125 -15.859375 L 10.796875 -13.09375 C 9.898438 -13.457031 9.160156 -13.710938 8.578125 -13.859375 C 7.992188 -14.003906 7.414062 -14.078125 6.84375 -14.078125 C 6.175781 -14.078125 5.660156 -13.921875 5.296875 -13.609375 C 4.929688 -13.296875 4.75 -12.882812 4.75 -12.375 C 4.75 -12.0625 4.820312 -11.785156 4.96875 -11.546875 C 5.113281 -11.316406 5.34375 -11.09375 5.65625 -10.875 C 5.976562 -10.65625 6.734375 -10.265625 7.921875 -9.703125 C 9.492188 -8.953125 10.570312 -8.195312 11.15625 -7.4375 C 11.738281 -6.6875 12.03125 -5.765625 12.03125 -4.671875 Z M 12.03125 -4.671875 "/></g></g></g></svg>