<svg width="70" height="70" viewBox="0 0 70 70" fill="none" xmlns="http://www.w3.org/2000/svg">
<path d="M64.1667 19.1042C64.1339 17.8459 64.0366 16.5901 63.875 15.3417C63.6573 14.2483 63.2943 13.1889 62.7959 12.1917C62.2746 11.1099 61.5745 10.1239 60.725 9.27504C59.8678 8.43564 58.8835 7.73676 57.8084 7.20421C56.8098 6.7155 55.7505 6.36238 54.6584 6.15421C53.4219 5.969 52.175 5.86184 50.925 5.83337H19.1042C17.8459 5.86615 16.5901 5.9635 15.3417 6.12504C14.2483 6.34282 13.1889 6.70576 12.1917 7.20421C11.1099 7.72552 10.1239 8.42563 9.27504 9.27504C8.43564 10.1323 7.73676 11.1166 7.20421 12.1917C6.7155 13.1903 6.36238 14.2496 6.15421 15.3417C5.969 16.5782 5.86184 17.8251 5.83337 19.075C5.83337 19.6292 5.83337 20.4167 5.83337 20.65V49.35C5.83337 49.6709 5.83337 50.3709 5.83337 50.8959C5.86615 52.1542 5.9635 53.41 6.12504 54.6584C6.34282 55.7518 6.70576 56.8111 7.20421 57.8084C7.72552 58.8902 8.42563 59.8762 9.27504 60.725C10.1323 61.5644 11.1166 62.2633 12.1917 62.7959C13.1903 63.2846 14.2496 63.6377 15.3417 63.8459C16.5782 64.0311 17.8251 64.1382 19.075 64.1667H50.8959C52.1542 64.1339 53.41 64.0366 54.6584 63.875C55.7518 63.6573 56.8111 63.2943 57.8084 62.7959C58.8902 62.2746 59.8762 61.5745 60.725 60.725C61.5644 59.8678 62.2633 58.8835 62.7959 57.8084C63.2846 56.8098 63.6377 55.7505 63.8459 54.6584C64.0311 53.4219 64.1382 52.175 64.1667 50.925C64.1667 50.3709 64.1667 49.6709 64.1667 49.35V20.65C64.1667 20.4167 64.1667 19.6292 64.1667 19.1042ZM35.6709 55.4167C32.1681 55.3994 28.7267 54.4964 25.6667 52.7917L14.5834 55.7084L17.5 44.8584C15.6191 41.698 14.6125 38.0943 14.5834 34.4167C14.595 30.2836 15.8294 26.2463 18.1311 22.8134C20.4328 19.3804 23.6989 16.7053 27.518 15.125C31.3371 13.5448 35.5385 13.1299 39.5929 13.9328C43.6473 14.7356 47.3735 16.7203 50.3021 19.6368C53.2308 22.5533 55.2309 26.2712 56.0506 30.3223C56.8704 34.3733 56.473 38.5763 54.9086 42.402C53.3442 46.2276 50.6827 49.5048 47.2594 51.8208C43.836 54.1367 39.8039 55.3879 35.6709 55.4167ZM35.6709 17.1209C32.5787 17.1563 29.551 18.0104 26.8962 19.5964C24.2415 21.1823 22.0544 23.4434 20.5576 26.1495C19.0608 28.8555 18.3078 31.9099 18.3753 35.0016C18.4428 38.0933 19.3283 41.1119 20.9417 43.75L21.35 44.4209L19.6 50.8084L26.25 49L26.8917 49.3792C29.5446 50.9418 32.5629 51.7769 35.6417 51.8C40.283 51.8 44.7342 49.9563 48.0161 46.6744C51.298 43.3925 53.1417 38.9413 53.1417 34.3C53.1417 29.6588 51.298 25.2076 48.0161 21.9257C44.7342 18.6438 40.283 16.8 35.6417 16.8L35.6709 17.1209ZM45.8792 41.9709C45.4972 42.6081 44.9857 43.158 44.3778 43.585C43.7698 44.0121 43.079 44.3068 42.35 44.45C41.2608 44.6491 40.1394 44.5791 39.0834 44.2459C38.0898 43.9352 37.1158 43.5651 36.1667 43.1375C32.561 41.3282 29.4859 38.615 27.2417 35.2625C26.0222 33.7094 25.2823 31.8341 25.1125 29.8667C25.0952 29.0494 25.2498 28.2376 25.5663 27.4839C25.8829 26.7302 26.3543 26.0515 26.95 25.4917C27.1255 25.2928 27.3408 25.1328 27.582 25.0223C27.8231 24.9118 28.0848 24.8531 28.35 24.85H29.1667C29.4875 24.85 29.925 24.85 30.3334 25.7542C30.7417 26.6584 31.8209 29.3709 31.9667 29.6334C32.0384 29.7733 32.0758 29.9283 32.0758 30.0855C32.0758 30.2427 32.0384 30.3976 31.9667 30.5375C31.8378 30.8545 31.6607 31.1496 31.4417 31.4125C31.1792 31.7334 30.8875 32.1125 30.6542 32.3459C30.4209 32.5792 30.1292 32.8709 30.4209 33.3959C31.2145 34.7352 32.1968 35.9532 33.3375 37.0125C34.5798 38.1103 36.0002 38.9881 37.5375 39.6084C38.0625 39.8709 38.3834 39.8417 38.675 39.6084C38.9667 39.375 39.9875 38.0917 40.3375 37.5667C40.6875 37.0417 41.0375 37.1292 41.5042 37.3042C41.9709 37.4792 44.5667 38.7334 45.0917 38.9959C45.6167 39.2584 45.9375 39.375 46.0834 39.6084C46.2099 40.3717 46.1396 41.1547 45.8792 41.8834V41.9709Z" fill="#53DE30"/>
</svg>
